<svg xmlns="http://www.w3.org/2000/svg" width="220" height="220" viewBox="0 0 220 220" fill="none">
  <defs>
    <linearGradient id="g" x1="40" y1="30" x2="190" y2="190" gradientUnits="userSpaceOnUse">
      <stop stop-color="#FF7A18"/>
      <stop offset="1" stop-color="#FFB35C"/>
    </linearGradient>
  </defs>
  <rect x="18" y="18" width="184" height="184" rx="44" fill="#0B1220"/>
  <rect x="26" y="26" width="168" height="168" rx="40" fill="url(#g)" opacity="0.18"/>
  <path d="M64 150V88.5c0-3.2 1.6-6.2 4.2-8l41-27.3c3.7-2.5 8.6-2.5 12.3 0l41 27.3c2.6 1.8 4.2 4.8 4.2 8V150" stroke="url(#g)" stroke-width="10" stroke-linecap="round"/>
  <path d="M86 150v-34c0-3.3 2.7-6 6-6h36c3.3 0 6 2.7 6 6v34" stroke="url(#g)" stroke-width="10" stroke-linecap="round"/>
  <circle cx="110" cy="84" r="8" fill="url(#g)"/>
</svg>

